<?xml version="1.0" encoding="UTF-8"?>
<svg id="Vrstva_1" xmlns="http://www.w3.org/2000/svg" version="1.1" viewBox="0 0 256 256">
  <!-- Generator: Adobe Illustrator 30.1.0, SVG Export Plug-In . SVG Version: 2.1.1 Build 136)  -->
  <defs>
    <style>
      .st0 {
        fill: #fff;
      }
    </style>
  </defs>
  <path class="st0" d="M128,32c-37.85,0-69.93,21.65-85.55,53.19-2.05,4.14-.13,9.16,4.15,10.9h0c3.83,1.56,8.25-.05,10.09-3.75,13.05-26.31,39.6-44.35,71.31-44.35,25.94,0,49.06,12.72,63.5,32h-23.53c-4.4,0-7.97,3.57-7.97,7.97v.07c0,4.4,3.57,7.97,7.97,7.97h40.07c4.4,0,7.97-3.57,7.97-7.97v-40.07c0-4.4-3.57-7.97-7.97-7.97h-.07c-4.4,0-7.97,3.57-7.97,7.97v16.78c-17.53-20.09-43.44-32.75-72-32.75ZM209.4,159.91c-3.83-1.56-8.25.05-10.09,3.75-13.05,26.31-39.6,44.35-71.31,44.35-26.22,0-49.25-12.91-63.75-32h23.78c4.4,0,7.97-3.57,7.97-7.97v-.07c0-4.4-3.57-7.97-7.97-7.97h-40.07c-4.4,0-7.97,3.57-7.97,7.97v40.07c0,4.4,3.57,7.97,7.97,7.97h.07c4.4,0,7.97-3.57,7.97-7.97v-16.78c17.5,19.84,43.16,32.75,72,32.75,37.85,0,69.93-21.65,85.55-53.19,2.05-4.14.13-9.16-4.15-10.9h0Z"/>
</svg>